<?xml version="1.0" encoding="utf-8"?>
<!-- Generator: Adobe Illustrator 22.0.0, SVG Export Plug-In . SVG Version: 6.00 Build 0)  -->
<svg version="1.1" xmlns="http://www.w3.org/2000/svg" xmlns:xlink="http://www.w3.org/1999/xlink" x="0px" y="0px"
	 viewBox="0 0 500 500" style="enable-background:new 0 0 500 500;" xml:space="preserve">
<style type="text/css">
	.st0{fill:none;stroke:#BBE5FF;stroke-width:0.9984;stroke-linecap:round;stroke-miterlimit:10;}
	.st1{fill:#A3CAEF;}
	.st2{fill:#4E6D84;}
	.st3{fill:#66E29E;}
	.st4{fill:#80AEFF;}
	.st5{fill:#B3D6FF;}
	.st6{fill:none;stroke:#8AB7CE;stroke-width:0.9984;stroke-linecap:round;stroke-miterlimit:10;}
	.st7{fill:#6E89A0;}
	.st8{fill:#85AED6;}
	.st9{fill:#96C1EA;}
	.st10{opacity:0.85;}
	.st11{fill:#96A8EA;}
	.st12{fill:#C0E0FC;}
	.st13{fill:#958ED6;}
	.st14{fill:none;stroke:#958ED6;stroke-width:0.9984;stroke-miterlimit:10;}
	.st15{fill:#E1F4FF;}
	.st16{fill:#679AF4;}
	.st17{fill:none;stroke:#80AEFF;stroke-width:0.9984;stroke-miterlimit:10;}
	.st18{fill:#F79B48;}
	.st19{fill:none;stroke:#F79B48;stroke-width:0.9984;stroke-miterlimit:10;}
	.st20{fill:#F78C57;}
	.st21{fill:none;stroke:#F78C57;stroke-width:0.9984;stroke-miterlimit:10;}
	.st22{fill:#F9BF3E;}
	.st23{fill:none;stroke:#F9BF3E;stroke-width:0.9984;stroke-miterlimit:10;}
	.st24{fill:none;stroke:#96C1EA;stroke-width:1.3313;stroke-miterlimit:10;}
</style>
<g id="BACKGROUND">
</g>
<g id="OBJECTS">
	<g>
		<g>
			<line class="st0" x1="200.3" y1="384.8" x2="200.3" y2="74.3"/>
			<line class="st0" x1="122.8" y1="303.9" x2="122.8" y2="137.8"/>
			<line class="st0" x1="217.8" y1="343.3" x2="217.8" y2="96.8"/>
			<line class="st0" x1="291.8" y1="343.3" x2="291.8" y2="99.5"/>
			<line class="st0" x1="363.9" y1="390.6" x2="363.9" y2="105.3"/>
			<path class="st0" d="M125.5,135.2c0,1.5-1.2,2.6-2.6,2.6c-1.5,0-2.6-1.2-2.6-2.6c0-1.5,1.2-2.6,2.6-2.6
				C124.3,132.5,125.5,133.7,125.5,135.2z"/>
			<path class="st0" d="M203,71.6c0,1.5-1.2,2.6-2.6,2.6s-2.6-1.2-2.6-2.6c0-1.5,1.2-2.6,2.6-2.6S203,70.2,203,71.6z"/>
			<path class="st0" d="M220.4,94.2c0,1.5-1.2,2.6-2.6,2.6c-1.5,0-2.6-1.2-2.6-2.6c0-1.5,1.2-2.6,2.6-2.6
				C219.2,91.6,220.4,92.7,220.4,94.2z"/>
			<path class="st0" d="M366.5,102.1c0,1.5-1.2,2.6-2.6,2.6c-1.5,0-2.6-1.2-2.6-2.6c0-1.5,1.2-2.6,2.6-2.6
				C365.3,99.5,366.5,100.7,366.5,102.1z"/>
			<g>
				<line class="st0" x1="397.9" y1="231.7" x2="397.9" y2="124.3"/>
				<path class="st0" d="M400.5,121.3c0,1.5-1.2,2.6-2.6,2.6c-1.5,0-2.6-1.2-2.6-2.6c0-1.5,1.2-2.6,2.6-2.6
					C399.4,118.6,400.5,119.8,400.5,121.3z"/>
			</g>
			<g>
				<line class="st0" x1="439.2" y1="343.2" x2="439.2" y2="194.1"/>
				<path class="st0" d="M441.8,191.1c0,1.5-1.2,2.6-2.6,2.6c-1.5,0-2.6-1.2-2.6-2.6c0-1.5,1.2-2.6,2.6-2.6
					C440.7,188.4,441.8,189.6,441.8,191.1z"/>
			</g>
			<g>
				<line class="st0" x1="84.6" y1="336.1" x2="84.6" y2="187"/>
				<path class="st0" d="M87.3,184c0,1.5-1.2,2.6-2.6,2.6c-1.5,0-2.6-1.2-2.6-2.6c0-1.5,1.2-2.6,2.6-2.6
					C86.1,181.3,87.3,182.5,87.3,184z"/>
			</g>
			<path class="st0" d="M294.5,96.8c0,1.5-1.2,2.6-2.6,2.6s-2.6-1.2-2.6-2.6c0-1.5,1.2-2.6,2.6-2.6S294.5,95.4,294.5,96.8z"/>
		</g>
		<g>
			<rect x="151.9" y="231.7" class="st1" width="210.8" height="122.5"/>
			<g>
				<g>
					<rect x="158.1" y="235.3" class="st2" width="198.4" height="115.3"/>
					<g>
						<g>
							<path class="st3" d="M214.8,260.4h-44.5c-0.9,0-1.7-0.7-1.7-1.7l0,0c0-0.9,0.7-1.7,1.7-1.7h44.5c0.9,0,1.7,0.7,1.7,1.7l0,0
								C216.5,259.6,215.7,260.4,214.8,260.4z"/>
							<path class="st3" d="M267.1,260.4h-44.5c-0.9,0-1.7-0.7-1.7-1.7l0,0c0-0.9,0.7-1.7,1.7-1.7h44.5c0.9,0,1.7,0.7,1.7,1.7l0,0
								C268.8,259.6,268.1,260.4,267.1,260.4z"/>
							<path class="st4" d="M288.2,260.4H276c-0.9,0-1.7-0.7-1.7-1.7l0,0c0-0.9,0.7-1.7,1.7-1.7h12.2c0.9,0,1.7,0.7,1.7,1.7l0,0
								C289.8,259.6,289.1,260.4,288.2,260.4z"/>
						</g>
						<g>
							<path class="st3" d="M229.1,291.7h-58.8c-0.9,0-1.7-0.7-1.7-1.7l0,0c0-0.9,0.7-1.7,1.7-1.7h58.8c0.9,0,1.7,0.7,1.7,1.7l0,0
								C230.7,290.9,230,291.7,229.1,291.7z"/>
							<path class="st4" d="M273.1,291.7h-35c-0.9,0-1.7-0.7-1.7-1.7l0,0c0-0.9,0.7-1.7,1.7-1.7h35c0.9,0,1.7,0.7,1.7,1.7l0,0
								C274.8,290.9,274,291.7,273.1,291.7z"/>
						</g>
						<g>
							<path class="st4" d="M191.8,270.8h-21.5c-0.9,0-1.7-0.7-1.7-1.7l0,0c0-0.9,0.7-1.7,1.7-1.7h21.5c0.9,0,1.7,0.7,1.7,1.7l0,0
								C193.5,270.1,192.7,270.8,191.8,270.8z"/>
							<path class="st3" d="M235.9,270.8h-38c-0.9,0-1.7-0.7-1.7-1.7l0,0c0-0.9,0.7-1.7,1.7-1.7h38c0.9,0,1.7,0.7,1.7,1.7l0,0
								C237.5,270.1,236.8,270.8,235.9,270.8z"/>
						</g>
						<g>
							<path class="st3" d="M209.5,250h-39.2c-0.9,0-1.7-0.7-1.7-1.7l0,0c0-0.9,0.7-1.7,1.7-1.7h39.2c0.9,0,1.7,0.7,1.7,1.7l0,0
								C211.2,249.2,210.4,250,209.5,250z"/>
							<path class="st4" d="M309.1,250h-91.3c-0.9,0-1.7-0.7-1.7-1.7l0,0c0-0.9,0.7-1.7,1.7-1.7h91.3c0.9,0,1.7,0.7,1.7,1.7l0,0
								C310.7,249.2,310,250,309.1,250z"/>
						</g>
						<g>
							<path class="st4" d="M288.2,281.3h-19.5c-0.9,0-1.7-0.7-1.7-1.7l0,0c0-0.9,0.7-1.7,1.7-1.7h19.5c0.9,0,1.7,0.7,1.7,1.7l0,0
								C289.8,280.5,289.1,281.3,288.2,281.3z"/>
							<path class="st3" d="M261.6,281.3h-91.3c-0.9,0-1.7-0.7-1.7-1.7l0,0c0-0.9,0.7-1.7,1.7-1.7h91.3c0.9,0,1.7,0.7,1.7,1.7l0,0
								C263.3,280.5,262.6,281.3,261.6,281.3z"/>
						</g>
						<g>
							<path class="st3" d="M214.8,312.6h-44.5c-0.9,0-1.7-0.7-1.7-1.7l0,0c0-0.9,0.7-1.7,1.7-1.7h44.5c0.9,0,1.7,0.7,1.7,1.7l0,0
								C216.5,311.8,215.7,312.6,214.8,312.6z"/>
							<path class="st3" d="M267.1,312.6h-44.5c-0.9,0-1.7-0.7-1.7-1.7l0,0c0-0.9,0.7-1.7,1.7-1.7h44.5c0.9,0,1.7,0.7,1.7,1.7l0,0
								C268.8,311.8,268.1,312.6,267.1,312.6z"/>
							<path class="st4" d="M288.2,312.6H276c-0.9,0-1.7-0.7-1.7-1.7l0,0c0-0.9,0.7-1.7,1.7-1.7h12.2c0.9,0,1.7,0.7,1.7,1.7l0,0
								C289.8,311.8,289.1,312.6,288.2,312.6z"/>
						</g>
						<g>
							<path class="st3" d="M229.1,343.9h-58.8c-0.9,0-1.7-0.7-1.7-1.7l0,0c0-0.9,0.7-1.7,1.7-1.7h58.8c0.9,0,1.7,0.7,1.7,1.7l0,0
								C230.7,343.1,230,343.9,229.1,343.9z"/>
							<path class="st4" d="M273.1,343.9h-35c-0.9,0-1.7-0.7-1.7-1.7l0,0c0-0.9,0.7-1.7,1.7-1.7h35c0.9,0,1.7,0.7,1.7,1.7l0,0
								C274.8,343.1,274,343.9,273.1,343.9z"/>
						</g>
						<g>
							<path class="st4" d="M191.8,323h-21.5c-0.9,0-1.7-0.7-1.7-1.7l0,0c0-0.9,0.7-1.7,1.7-1.7h21.5c0.9,0,1.7,0.7,1.7,1.7l0,0
								C193.5,322.3,192.7,323,191.8,323z"/>
							<path class="st3" d="M235.9,323h-38c-0.9,0-1.7-0.7-1.7-1.7l0,0c0-0.9,0.7-1.7,1.7-1.7h38c0.9,0,1.7,0.7,1.7,1.7l0,0
								C237.5,322.3,236.8,323,235.9,323z"/>
						</g>
						<g>
							<path class="st3" d="M209.5,302.1h-39.2c-0.9,0-1.7-0.7-1.7-1.7l0,0c0-0.9,0.7-1.7,1.7-1.7h39.2c0.9,0,1.7,0.7,1.7,1.7l0,0
								C211.2,301.4,210.4,302.1,209.5,302.1z"/>
							<path class="st4" d="M300,302.1h-82.3c-0.9,0-1.6-0.7-1.6-1.6v-0.2c0-0.9,0.7-1.6,1.6-1.6H300c0.9,0,1.6,0.7,1.6,1.6v0.2
								C301.5,301.4,300.8,302.1,300,302.1z"/>
						</g>
						<g>
							<path class="st4" d="M288.2,333.4h-19.5c-0.9,0-1.7-0.7-1.7-1.7l0,0c0-0.9,0.7-1.7,1.7-1.7h19.5c0.9,0,1.7,0.7,1.7,1.7l0,0
								C289.8,332.7,289.1,333.4,288.2,333.4z"/>
							<path class="st3" d="M261.6,333.4h-91.3c-0.9,0-1.7-0.7-1.7-1.7l0,0c0-0.9,0.7-1.7,1.7-1.7h91.3c0.9,0,1.7,0.7,1.7,1.7l0,0
								C263.3,332.7,262.6,333.4,261.6,333.4z"/>
						</g>
					</g>
				</g>
				<polygon class="st5" points="429.9,406.5 84.6,406.5 151.9,354.2 362.6,354.2 				"/>
				<g>
					<line class="st6" x1="136.7" y1="357.5" x2="146" y2="350.5"/>
					<line class="st6" x1="103.3" y1="382.6" x2="133.3" y2="360"/>
					<path class="st6" d="M120.2,417.9H76.4c-6.4,0-9.1-8.1-4-12l9.6-7.2"/>
					<line class="st6" x1="305" y1="417.9" x2="151.9" y2="417.9"/>
					<line class="st6" x1="406.7" y1="417.9" x2="332.7" y2="417.9"/>
					<line class="st6" x1="404.1" y1="378.2" x2="417.3" y2="388.2"/>
					<line class="st6" x1="376.1" y1="357.1" x2="401.4" y2="376.2"/>
				</g>
				<g>
					<polygon class="st7" points="173.4,359.1 161.9,359.1 166.1,355.8 177.1,355.8 					"/>
					<polygon class="st7" points="166.8,365.2 154.1,365.2 159,361.4 171.1,361.4 					"/>
					<polygon class="st7" points="186.2,365.2 173.5,365.2 177.4,361.4 189.5,361.4 					"/>
					<polygon class="st7" points="205.5,365.2 192.8,365.2 195.9,361.4 208,361.4 					"/>
					<polygon class="st7" points="224.9,365.2 212.2,365.2 214.3,361.4 226.4,361.4 					"/>
					<polygon class="st7" points="244.3,365.2 231.5,365.2 232.8,361.4 244.9,361.4 					"/>
					<polygon class="st7" points="263.6,365.2 250.9,365.2 251.2,361.4 263.3,361.4 					"/>
					<polygon class="st7" points="283,365.2 270.3,365.2 269.6,361.4 281.7,361.4 					"/>
					<polygon class="st7" points="302.3,365.2 289.6,365.2 288.1,361.4 300.2,361.4 					"/>
					<polygon class="st7" points="321.7,365.2 309,365.2 306.5,361.4 318.6,361.4 					"/>
					<polygon class="st7" points="341,365.2 328.3,365.2 325,361.4 337.1,361.4 					"/>
					<polygon class="st7" points="360.4,365.2 347.7,365.2 343.4,361.4 355.5,361.4 					"/>
					<polygon class="st7" points="159.7,371.6 146,371.6 151.6,367.2 164.6,367.2 					"/>
					<polygon class="st7" points="180.6,371.6 166.8,371.6 171.4,367.2 184.5,367.2 					"/>
					<polygon class="st7" points="201.4,371.6 187.7,371.6 191.3,367.2 204.3,367.2 					"/>
					<polygon class="st7" points="222.3,371.6 208.6,371.6 211.1,367.2 224.1,367.2 					"/>
					<polygon class="st7" points="243.2,371.6 229.5,371.6 230.9,367.2 243.9,367.2 					"/>
					<polygon class="st7" points="264.1,371.6 250.4,371.6 250.8,367.2 263.8,367.2 					"/>
					<polygon class="st7" points="285,371.6 271.3,371.6 270.6,367.2 283.6,367.2 					"/>
					<polygon class="st7" points="305.9,371.6 292.2,371.6 290.4,367.2 303.4,367.2 					"/>
					<polygon class="st7" points="326.8,371.6 313.1,371.6 310.2,367.2 323.2,367.2 					"/>
					<polygon class="st7" points="347.7,371.6 334,371.6 330.1,367.2 343.1,367.2 					"/>
					<polygon class="st7" points="368.6,371.6 354.8,371.6 349.9,367.2 362.9,367.2 					"/>
					<polygon class="st7" points="150.8,379.5 135.9,379.5 142.6,374.3 156.7,374.3 					"/>
					<polygon class="st7" points="173.6,379.5 158.7,379.5 164.1,374.3 178.2,374.3 					"/>
					<polygon class="st7" points="309.9,379.5 181.4,379.5 185.6,374.3 307,374.3 					"/>
					<polygon class="st7" points="333.1,379.5 318.1,379.5 314.8,374.3 328.9,374.3 					"/>
					<polygon class="st7" points="355.8,379.5 340.9,379.5 336.3,374.3 350.4,374.3 					"/>
					<polygon class="st7" points="378.6,379.5 363.7,379.5 357.8,374.3 371.9,374.3 					"/>
					<polygon class="st7" points="196.6,359.1 185.1,359.1 188.3,355.8 199.3,355.8 					"/>
					<polygon class="st7" points="213,359.1 201.5,359.1 204,355.8 214.9,355.8 					"/>
					<polygon class="st7" points="229.4,359.1 217.9,359.1 219.6,355.8 230.6,355.8 					"/>
					<polygon class="st7" points="245.8,359.1 234.3,359.1 235.3,355.8 246.3,355.8 					"/>
					<polygon class="st7" points="262.2,359.1 250.7,359.1 251,355.8 262,355.8 					"/>
					<polygon class="st7" points="278.6,359.1 267.1,359.1 266.7,355.8 277.6,355.8 					"/>
					<polygon class="st7" points="295.5,359.1 284,359.1 282.9,355.8 293.8,355.8 					"/>
					<polygon class="st7" points="321.5,359.1 310,359.1 307.7,355.8 318.6,355.8 					"/>
					<polygon class="st7" points="337,359.1 325.6,359.1 322.6,355.8 333.5,355.8 					"/>
					<polygon class="st7" points="352.6,359.1 341.1,359.1 337.5,355.8 348.4,355.8 					"/>
					<polygon class="st8" points="296.6,399.4 217.9,399.4 224.1,384.8 290.4,384.8 					"/>
				</g>
				<path class="st9" d="M424.8,412.3h-335c-2.8,0-5.1-2.3-5.1-5.1v-0.7h345.2v0.7C429.9,410,427.6,412.3,424.8,412.3z"/>
			</g>
		</g>
		<g class="st10">
			<path class="st11" d="M302.3,319.7H217c-1.5,0-2.7-1.2-2.7-2.7V168.6c0-1.5,1.2-2.7,2.7-2.7h85.4c1.5,0,2.7,1.2,2.7,2.7V317
				C305,318.5,303.8,319.7,302.3,319.7z"/>
			<rect x="217.8" y="171.8" class="st12" width="83.8" height="128.6"/>
			<path class="st12" d="M264.8,310.4c0,2.8-2.3,5.1-5.1,5.1c-2.8,0-5.1-2.3-5.1-5.1c0-2.8,2.3-5.1,5.1-5.1
				C262.5,305.3,264.8,307.5,264.8,310.4z"/>
		</g>
		<g>
			<path class="st13" d="M151.8,250.2h-36.2c-6.3,0-11.4-5.1-11.4-11.4v-36.2c0-6.3,5.1-11.4,11.4-11.4h36.2
				c6.3,0,11.4,5.1,11.4,11.4v36.2C163.2,245.1,158.1,250.2,151.8,250.2z"/>
			<path class="st14" d="M153.9,253.7h-40.4c-7.1,0-12.8-5.7-12.8-12.8v-40.4c0-7.1,5.7-12.8,12.8-12.8h40.4
				c7.1,0,12.8,5.7,12.8,12.8V241C166.7,248,161,253.7,153.9,253.7z"/>
			<g>
				<path class="st15" d="M112.5,213.3h5.9c3.3,0,6,1.1,6,4.8c0,3.7-2.5,4.9-5.9,4.9H116v6.2h-3.5V213.3z M116,220h2.3
					c1.2,0,2.5-0.4,2.5-1.9c0-1.6-1.7-1.9-3-1.9H116V220z"/>
				<path class="st15" d="M126.7,213.3h3.5v5.9h6.8v-5.9h3.5v15.9H137v-6.9h-6.8v6.9h-3.5V213.3z"/>
				<path class="st15" d="M143.8,213.3h5.9c3.3,0,6,1.1,6,4.8c0,3.7-2.5,4.9-5.9,4.9h-2.6v6.2h-3.5V213.3z M147.3,220h2.3
					c1.2,0,2.5-0.4,2.5-1.9c0-1.6-1.7-1.9-3-1.9h-1.8V220z"/>
			</g>
		</g>
		<g>
			<path class="st16" d="M392.6,328.3h-36.2c-6.3,0-11.4-5.1-11.4-11.4v-36.2c0-6.3,5.1-11.4,11.4-11.4h36.2
				c6.3,0,11.4,5.1,11.4,11.4v36.2C404.1,323.2,398.9,328.3,392.6,328.3z"/>
			<path class="st17" d="M394.8,331.8h-40.4c-7.1,0-12.8-5.7-12.8-12.8v-40.4c0-7.1,5.7-12.8,12.8-12.8h40.4
				c7.1,0,12.8,5.7,12.8,12.8V319C407.6,326.1,401.8,331.8,394.8,331.8z"/>
			<g>
				<path class="st15" d="M364.7,292.8c-0.7-0.9-1.8-1.4-3.1-1.4c-2.8,0-4.8,2.3-4.8,5.4c0,3.1,2,5.4,4.7,5.4c1.5,0,2.7-0.7,3.4-1.8
					l3.1,2.3c-1.4,2-3.7,2.9-6,2.9c-5.2,0-9-3.4-9-8.7c0-5.3,3.8-8.7,9-8.7c1.9,0,4.2,0.6,5.6,2.4L364.7,292.8z"/>
				<path class="st15" d="M369.7,296.6h5v-5h3v5h5v3h-5v5h-3v-5h-5V296.6z"/>
				<path class="st15" d="M385.3,296.6h5v-5h3v5h5v3h-5v5h-3v-5h-5V296.6z"/>
			</g>
		</g>
		<g>
			<path class="st18" d="M361.2,247.5h-25.6c-4.5,0-8.1-3.6-8.1-8.1v-25.6c0-4.5,3.6-8.1,8.1-8.1h25.6c4.5,0,8.1,3.6,8.1,8.1v25.6
				C369.3,243.9,365.6,247.5,361.2,247.5z"/>
			<path class="st19" d="M362.7,250H334c-5,0-9.1-4.1-9.1-9.1v-28.7c0-5,4.1-9.1,9.1-9.1h28.7c5,0,9.1,4.1,9.1,9.1v28.7
				C371.7,245.9,367.7,250,362.7,250z"/>
			<g>
				<path class="st15" d="M332.8,221.9h1.9v3.3h3.8v-3.3h1.9v8.8h-1.9v-3.8h-3.8v3.8h-1.9V221.9z"/>
				<path class="st15" d="M343.9,223.6h-2.5v-1.7h6.9v1.7h-2.5v7.1h-1.9V223.6z"/>
				<path class="st15" d="M349.4,221.9h2.9l2,5.7h0l2-5.7h2.9v8.8h-1.9v-6.7h0l-2.3,6.7h-1.5l-2.2-6.7h0v6.7h-1.9V221.9z"/>
				<path class="st15" d="M361.1,221.9h1.9v7h3.6v1.8h-5.5V221.9z"/>
			</g>
		</g>
		<g>
			<path class="st20" d="M221.2,184.6h-36.2c-6.3,0-11.4-5.1-11.4-11.4V137c0-6.3,5.1-11.4,11.4-11.4h36.2c6.3,0,11.4,5.1,11.4,11.4
				v36.2C232.7,179.4,227.5,184.6,221.2,184.6z"/>
			<path class="st21" d="M223.4,188h-40.4c-7.1,0-12.8-5.7-12.8-12.8v-40.4c0-7.1,5.7-12.8,12.8-12.8h40.4c7.1,0,12.8,5.7,12.8,12.8
				v40.4C236.2,182.3,230.4,188,223.4,188z"/>
			<g>
				<path class="st15" d="M189.4,156.6c0,2.2-0.6,4.3-3.8,4.3c-1.9,0-3.3-0.9-3.7-2.8l2.4-0.6c0.1,0.6,0.6,1.1,1.2,1.1
					c1.2,0,1.3-1.4,1.3-2.3v-7.7h2.7V156.6z"/>
				<path class="st15" d="M195.7,148.6h2.2l5.2,12h-3l-1-2.6h-4.7l-1,2.6h-2.9L195.7,148.6z M196.7,152.1l-1.5,3.7h2.9L196.7,152.1z
					"/>
				<path class="st15" d="M202.1,148.6h3l3,7.9h0l3-7.9h2.8l-5,12h-2.1L202.1,148.6z"/>
				<path class="st15" d="M218.1,148.6h2.2l5.2,12h-3l-1-2.6h-4.7l-1,2.6h-2.9L218.1,148.6z M219.2,152.1l-1.5,3.7h2.9L219.2,152.1z
					"/>
			</g>
		</g>
		<g>
			<path class="st22" d="M180.1,325.7h-26.7c-4.7,0-8.4-3.8-8.4-8.4v-26.7c0-4.7,3.8-8.4,8.4-8.4h26.7c4.7,0,8.4,3.8,8.4,8.4v26.7
				C188.5,322,184.7,325.7,180.1,325.7z"/>
			<path class="st23" d="M181.6,328.3h-29.9c-5.2,0-9.4-4.2-9.4-9.4V289c0-5.2,4.2-9.4,9.4-9.4h29.9c5.2,0,9.4,4.2,9.4,9.4v29.9
				C191.1,324.1,186.9,328.3,181.6,328.3z"/>
			<g>
				<path class="st15" d="M163.8,305.7c0,3.1-0.8,6.1-5.4,6.1c-2.7,0-4.6-1.2-5.2-3.9l3.4-0.8c0.1,0.8,0.9,1.5,1.7,1.5
					c1.7,0,1.8-1.9,1.8-3.2v-10.8h3.7V305.7z"/>
				<path class="st15" d="M175.4,298.6c-0.6-0.8-1.8-1.1-2.7-1.1c-1,0-2.5,0.5-2.5,1.7c0,3.1,7.8,1.1,7.8,7c0,3.8-3,5.6-6.5,5.6
					c-2.2,0-4.1-0.6-5.7-2.1l2.6-2.9c0.8,1,2,1.6,3.2,1.6c1.2,0,2.6-0.6,2.6-1.8c0-3.1-7.9-1.4-7.9-7.1c0-3.6,3.1-5.5,6.4-5.5
					c1.9,0,3.7,0.5,5.2,1.8L175.4,298.6z"/>
			</g>
		</g>
		<path class="st24" d="M409.3,343.2c0,1.5-1.2,2.6-2.6,2.6c-1.5,0-2.6-1.2-2.6-2.6c0-1.5,1.2-2.6,2.6-2.6
			C408.2,340.6,409.3,341.7,409.3,343.2z"/>
		<path class="st24" d="M371.2,171.8c0,1.5-1.2,2.6-2.6,2.6c-1.5,0-2.6-1.2-2.6-2.6s1.2-2.6,2.6-2.6
			C370,169.2,371.2,170.4,371.2,171.8z"/>
		<path class="st20" d="M391.7,236.2c0,0.9-0.8,1.7-1.7,1.7s-1.7-0.8-1.7-1.7s0.8-1.7,1.7-1.7S391.7,235.2,391.7,236.2z"/>
		<circle class="st20" cx="128.4" cy="335.2" r="1.7"/>
		<circle class="st20" cx="149.8" cy="171.8" r="1.7"/>
		<path class="st20" d="M380.3,349.1c0,0.9-0.8,1.7-1.7,1.7s-1.7-0.8-1.7-1.7s0.8-1.7,1.7-1.7S380.3,348.2,380.3,349.1z"/>
		<path class="st24" d="M196.1,200.5c0,1.5-1.2,2.6-2.6,2.6c-1.5,0-2.6-1.2-2.6-2.6s1.2-2.6,2.6-2.6
			C194.9,197.9,196.1,199.1,196.1,200.5z"/>
		<path class="st24" d="M103.3,342.2c0,1.5-1.2,2.6-2.6,2.6c-1.5,0-2.6-1.2-2.6-2.6c0-1.5,1.2-2.6,2.6-2.6
			C102.1,339.6,103.3,340.8,103.3,342.2z"/>
		<path class="st24" d="M133.7,171.8c0,1.5-1.2,2.6-2.6,2.6c-1.5,0-2.6-1.2-2.6-2.6s1.2-2.6,2.6-2.6
			C132.5,169.2,133.7,170.4,133.7,171.8z"/>
	</g>
</g>
<g id="DESIGNED_BY_FREEPIK">
</g>
</svg>
