<svg xmlns="http://www.w3.org/2000/svg" viewBox="0 0 194.31 194.31"><defs><style>.cls-1{fill:none;stroke:#8ab7ce;stroke-miterlimit:10;stroke-width:1px;}</style></defs><title>engranaje-grande</title><g id="OBJECTS"><path class="cls-1" d="M423.43,241.56V211.12a5.21,5.21,0,0,0-4.87-5.2L405.07,205a80.19,80.19,0,0,0-7.88-19l8.93-10.17a5.21,5.21,0,0,0-.23-7.12l-21.53-21.53a5.21,5.21,0,0,0-7.12-.23l-10.17,8.92a80.76,80.76,0,0,0-19-7.87l-.88-13.5a5.22,5.22,0,0,0-5.2-4.87H311.56a5.21,5.21,0,0,0-5.2,4.87l-.88,13.5a80.58,80.58,0,0,0-19,7.87L276.31,147a5.21,5.21,0,0,0-7.12.23l-21.52,21.53a5.21,5.21,0,0,0-.23,7.12l8.92,10.17a80.61,80.61,0,0,0-7.88,19l-13.49.88a5.21,5.21,0,0,0-4.87,5.2v30.44a5.21,5.21,0,0,0,4.87,5.2l13.49.88a80.61,80.61,0,0,0,7.88,19l-8.92,10.17a5.21,5.21,0,0,0,.23,7.12l21.52,21.53a5.21,5.21,0,0,0,7.12.23l10.18-8.92a80.58,80.58,0,0,0,19,7.87l.88,13.5a5.22,5.22,0,0,0,5.2,4.87H342a5.22,5.22,0,0,0,5.2-4.87l.88-13.5a80.76,80.76,0,0,0,19-7.87l10.17,8.92a5.21,5.21,0,0,0,7.12-.23l21.53-21.53a5.21,5.21,0,0,0,.23-7.12l-8.93-10.17a80.19,80.19,0,0,0,7.88-19l13.49-.88A5.21,5.21,0,0,0,423.43,241.56Zm-91.75,32.53a48,48,0,1,1,42.85-42.85A48,48,0,0,1,331.68,274.09Z" transform="translate(-229.62 -129.18)"/></g></svg>