<?xml version="1.0" encoding="utf-8"?>
<!-- Generator: Adobe Illustrator 22.0.0, SVG Export Plug-In . SVG Version: 6.00 Build 0)  -->
<svg version="1.1" xmlns="http://www.w3.org/2000/svg" xmlns:xlink="http://www.w3.org/1999/xlink" x="0px" y="0px"
	 viewBox="0 0 500 500" style="enable-background:new 0 0 500 500;" xml:space="preserve">
<style type="text/css">
	.st0{fill:none;stroke:#BBE5FF;stroke-width:0.9984;stroke-linecap:round;stroke-miterlimit:10;}
	.st1{fill:none;stroke:#96C1EA;stroke-width:1.3313;stroke-miterlimit:10;}
	.st2{fill:#F78C57;}
</style>
<g id="BACKGROUND">
</g>
<g id="OBJECTS">
	<g>
		<g>
			<line class="st0" x1="200.3" y1="384.8" x2="200.3" y2="74.3"/>
			<line class="st0" x1="122.8" y1="303.9" x2="122.8" y2="137.8"/>
			<line class="st0" x1="217.8" y1="343.3" x2="217.8" y2="96.8"/>
			<line class="st0" x1="291.8" y1="343.3" x2="291.8" y2="99.5"/>
			<line class="st0" x1="363.9" y1="390.6" x2="363.9" y2="105.3"/>
			<path class="st0" d="M125.5,135.2c0,1.5-1.2,2.6-2.6,2.6c-1.5,0-2.6-1.2-2.6-2.6c0-1.5,1.2-2.6,2.6-2.6
				C124.3,132.5,125.5,133.7,125.5,135.2z"/>
			<path class="st0" d="M203,71.6c0,1.5-1.2,2.6-2.6,2.6s-2.6-1.2-2.6-2.6c0-1.5,1.2-2.6,2.6-2.6S203,70.2,203,71.6z"/>
			<path class="st0" d="M220.4,94.2c0,1.5-1.2,2.6-2.6,2.6c-1.5,0-2.6-1.2-2.6-2.6c0-1.5,1.2-2.6,2.6-2.6
				C219.2,91.6,220.4,92.7,220.4,94.2z"/>
			<path class="st0" d="M366.5,102.1c0,1.5-1.2,2.6-2.6,2.6c-1.5,0-2.6-1.2-2.6-2.6c0-1.5,1.2-2.6,2.6-2.6
				C365.3,99.5,366.5,100.7,366.5,102.1z"/>
			<g>
				<line class="st0" x1="397.9" y1="231.7" x2="397.9" y2="124.3"/>
				<path class="st0" d="M400.5,121.3c0,1.5-1.2,2.6-2.6,2.6c-1.5,0-2.6-1.2-2.6-2.6c0-1.5,1.2-2.6,2.6-2.6
					C399.4,118.6,400.5,119.8,400.5,121.3z"/>
			</g>
			<g>
				<line class="st0" x1="439.2" y1="343.2" x2="439.2" y2="194.1"/>
				<path class="st0" d="M441.8,191.1c0,1.5-1.2,2.6-2.6,2.6c-1.5,0-2.6-1.2-2.6-2.6c0-1.5,1.2-2.6,2.6-2.6
					C440.7,188.4,441.8,189.6,441.8,191.1z"/>
			</g>
			<g>
				<line class="st0" x1="84.6" y1="336.1" x2="84.6" y2="187"/>
				<path class="st0" d="M87.3,184c0,1.5-1.2,2.6-2.6,2.6c-1.5,0-2.6-1.2-2.6-2.6c0-1.5,1.2-2.6,2.6-2.6
					C86.1,181.3,87.3,182.5,87.3,184z"/>
			</g>
			<path class="st0" d="M294.5,96.8c0,1.5-1.2,2.6-2.6,2.6s-2.6-1.2-2.6-2.6c0-1.5,1.2-2.6,2.6-2.6S294.5,95.4,294.5,96.8z"/>
		</g>
		<path class="st1" d="M409.3,343.2c0,1.5-1.2,2.6-2.6,2.6c-1.5,0-2.6-1.2-2.6-2.6c0-1.5,1.2-2.6,2.6-2.6
			C408.2,340.6,409.3,341.7,409.3,343.2z"/>
		<path class="st1" d="M371.2,171.8c0,1.5-1.2,2.6-2.6,2.6c-1.5,0-2.6-1.2-2.6-2.6s1.2-2.6,2.6-2.6
			C370,169.2,371.2,170.4,371.2,171.8z"/>
		<path class="st2" d="M391.7,236.2c0,0.9-0.8,1.7-1.7,1.7s-1.7-0.8-1.7-1.7s0.8-1.7,1.7-1.7S391.7,235.2,391.7,236.2z"/>
		<circle class="st2" cx="128.4" cy="335.2" r="1.7"/>
		<circle class="st2" cx="149.8" cy="171.8" r="1.7"/>
		<path class="st2" d="M380.3,349.1c0,0.9-0.8,1.7-1.7,1.7s-1.7-0.8-1.7-1.7s0.8-1.7,1.7-1.7S380.3,348.2,380.3,349.1z"/>
		<path class="st1" d="M196.1,200.5c0,1.5-1.2,2.6-2.6,2.6c-1.5,0-2.6-1.2-2.6-2.6s1.2-2.6,2.6-2.6
			C194.9,197.9,196.1,199.1,196.1,200.5z"/>
		<path class="st1" d="M103.3,342.2c0,1.5-1.2,2.6-2.6,2.6c-1.5,0-2.6-1.2-2.6-2.6c0-1.5,1.2-2.6,2.6-2.6
			C102.1,339.6,103.3,340.8,103.3,342.2z"/>
		<path class="st1" d="M133.7,171.8c0,1.5-1.2,2.6-2.6,2.6c-1.5,0-2.6-1.2-2.6-2.6s1.2-2.6,2.6-2.6
			C132.5,169.2,133.7,170.4,133.7,171.8z"/>
	</g>
</g>
<g id="DESIGNED_BY_FREEPIK">
</g>
</svg>
