<svg xmlns="http://www.w3.org/2000/svg" viewBox="0 0 134.5 134.5"><defs><style>.cls-1{fill:none;stroke:#8ab7ce;stroke-miterlimit:10;stroke-width:1px;}</style></defs><title>tinygear-img-intro</title><g id="OBJECTS"><path class="cls-1" d="M222.39,294.16l4.68-20.26a3.55,3.55,0,0,0-2.44-4.2L215.79,267a55.22,55.22,0,0,0-2.32-13.84l7.5-5.4a3.56,3.56,0,0,0,.94-4.77l-11-17.64a3.58,3.58,0,0,0-4.71-1.25l-8.14,4.38a54.85,54.85,0,0,0-11.42-8.16l1.48-9.12a3.55,3.55,0,0,0-2.71-4l-20.25-4.68a3.56,3.56,0,0,0-4.21,2.44l-2.66,8.84a55.3,55.3,0,0,0-13.85,2.33l-5.4-7.51a3.56,3.56,0,0,0-4.77-.94l-17.63,11a3.55,3.55,0,0,0-1.25,4.7l4.37,8.14A55.29,55.29,0,0,0,111.59,243l-9.11-1.49a3.56,3.56,0,0,0-4,2.71l-4.68,20.26a3.54,3.54,0,0,0,2.44,4.2L105,271.3a54.77,54.77,0,0,0,2.32,13.85l-7.5,5.4a3.55,3.55,0,0,0-.94,4.77l11,17.64a3.56,3.56,0,0,0,4.7,1.25l8.14-4.38A54.92,54.92,0,0,0,134.2,318l-1.49,9.12a3.56,3.56,0,0,0,2.71,4l20.26,4.68a3.56,3.56,0,0,0,4.21-2.44l2.66-8.85a54.84,54.84,0,0,0,13.85-2.32l5.39,7.51a3.57,3.57,0,0,0,4.78.94l17.63-11a3.55,3.55,0,0,0,1.25-4.7l-4.37-8.14a55.29,55.29,0,0,0,8.16-11.43l9.11,1.49A3.56,3.56,0,0,0,222.39,294.16Zm-66.06,7.54a32.79,32.79,0,1,1,35.11-21.93A32.8,32.8,0,0,1,156.33,301.7Z" transform="translate(-93.16 -201.92)"/></g></svg>